<mxfile host="65bd71144e">
    <diagram id="5jWS66OkcI7lht1l4ZPY" name="第 1 页">
        <mxGraphModel dx="680" dy="611" grid="1" gridSize="10" guides="1" tooltips="1" connect="1" arrows="1" fold="1" page="1" pageScale="1" pageWidth="1169" pageHeight="827" math="0" shadow="0">
            <root>
                <mxCell id="0"/>
                <mxCell id="1" parent="0"/>
                <mxCell id="103" value="" style="rounded=0;whiteSpace=wrap;html=1;fontFamily=Times New Roman;fontSize=24;" parent="1" vertex="1">
                    <mxGeometry width="1160" height="820" as="geometry"/>
                </mxCell>
                <mxCell id="2" value="&lt;font face=&quot;Times New Roman&quot; style=&quot;font-size: 24px;&quot;&gt;Customer&lt;/font&gt;" style="rounded=0;whiteSpace=wrap;html=1;" parent="1" vertex="1">
                    <mxGeometry x="370" y="233" width="120" height="60" as="geometry"/>
                </mxCell>
                <mxCell id="12" value="&lt;font style=&quot;font-size: 24px;&quot;&gt;Individual&lt;/font&gt;" style="rounded=0;whiteSpace=wrap;html=1;fontFamily=Times New Roman;" parent="1" vertex="1">
                    <mxGeometry x="105" y="303" width="120" height="60" as="geometry"/>
                </mxCell>
                <mxCell id="13" value="&lt;span style=&quot;font-size: 24px;&quot;&gt;Company&lt;/span&gt;" style="rounded=0;whiteSpace=wrap;html=1;fontFamily=Times New Roman;" parent="1" vertex="1">
                    <mxGeometry x="105" y="183" width="120" height="60" as="geometry"/>
                </mxCell>
                <mxCell id="14" value="ISA" style="triangle;whiteSpace=wrap;html=1;fontSize=24;rotation=0;horizontal=1;verticalAlign=middle;" parent="1" vertex="1">
                    <mxGeometry x="275" y="223" width="60" height="80" as="geometry"/>
                </mxCell>
                <mxCell id="19" value="" style="endArrow=none;html=1;rounded=0;sketch=0;strokeColor=default;fontFamily=Times New Roman;fontSize=24;entryX=0;entryY=0.25;entryDx=0;entryDy=0;exitX=1;exitY=0.5;exitDx=0;exitDy=0;" parent="1" source="13" target="14" edge="1">
                    <mxGeometry width="50" height="50" relative="1" as="geometry">
                        <mxPoint x="510" y="373" as="sourcePoint"/>
                        <mxPoint x="560" y="323" as="targetPoint"/>
                    </mxGeometry>
                </mxCell>
                <mxCell id="20" value="" style="endArrow=none;html=1;rounded=0;sketch=0;strokeColor=default;fontFamily=Times New Roman;fontSize=24;entryX=0;entryY=0.5;entryDx=0;entryDy=0;exitX=1;exitY=0.5;exitDx=0;exitDy=0;" parent="1" source="14" target="2" edge="1">
                    <mxGeometry width="50" height="50" relative="1" as="geometry">
                        <mxPoint x="415" y="227" as="sourcePoint"/>
                        <mxPoint x="710" y="187" as="targetPoint"/>
                    </mxGeometry>
                </mxCell>
                <mxCell id="21" value="" style="endArrow=none;html=1;rounded=0;sketch=0;strokeColor=default;fontFamily=Times New Roman;fontSize=24;entryX=0;entryY=0.75;entryDx=0;entryDy=0;exitX=1;exitY=0.5;exitDx=0;exitDy=0;" parent="1" source="12" target="14" edge="1">
                    <mxGeometry width="50" height="50" relative="1" as="geometry">
                        <mxPoint x="145" y="263" as="sourcePoint"/>
                        <mxPoint x="740" y="273" as="targetPoint"/>
                    </mxGeometry>
                </mxCell>
                <mxCell id="22" value="&lt;u&gt;Cid&lt;/u&gt;" style="ellipse;whiteSpace=wrap;html=1;fontFamily=Times New Roman;fontSize=24;" parent="1" vertex="1">
                    <mxGeometry x="420" y="150" width="70" height="40" as="geometry"/>
                </mxCell>
                <mxCell id="23" value="Cname" style="ellipse;whiteSpace=wrap;html=1;fontFamily=Times New Roman;fontSize=24;" parent="1" vertex="1">
                    <mxGeometry x="330" y="150" width="70" height="40" as="geometry"/>
                </mxCell>
                <mxCell id="25" value="" style="endArrow=none;html=1;rounded=0;sketch=0;strokeColor=default;fontFamily=Times New Roman;fontSize=24;exitX=0.5;exitY=1;exitDx=0;exitDy=0;" parent="1" source="23" target="2" edge="1">
                    <mxGeometry width="50" height="50" relative="1" as="geometry">
                        <mxPoint x="595" y="167" as="sourcePoint"/>
                        <mxPoint x="645" y="117" as="targetPoint"/>
                    </mxGeometry>
                </mxCell>
                <mxCell id="26" value="" style="endArrow=none;html=1;rounded=0;sketch=0;strokeColor=default;fontFamily=Times New Roman;fontSize=24;entryX=0.75;entryY=0;entryDx=0;entryDy=0;exitX=0.5;exitY=1;exitDx=0;exitDy=0;" parent="1" source="22" target="2" edge="1">
                    <mxGeometry width="50" height="50" relative="1" as="geometry">
                        <mxPoint x="604.9999999999998" y="177" as="sourcePoint"/>
                        <mxPoint x="664.9999999999998" y="162" as="targetPoint"/>
                    </mxGeometry>
                </mxCell>
                <mxCell id="29" value="" style="endArrow=none;html=1;rounded=0;sketch=0;strokeColor=default;fontFamily=Times New Roman;fontSize=24;exitX=0.5;exitY=0;exitDx=0;exitDy=0;" parent="1" source="34" edge="1">
                    <mxGeometry width="50" height="50" relative="1" as="geometry">
                        <mxPoint x="55" y="383" as="sourcePoint"/>
                        <mxPoint x="105" y="333" as="targetPoint"/>
                    </mxGeometry>
                </mxCell>
                <mxCell id="34" value="Gender" style="ellipse;whiteSpace=wrap;html=1;fontFamily=Times New Roman;fontSize=24;" parent="1" vertex="1">
                    <mxGeometry x="15" y="393" width="70" height="40" as="geometry"/>
                </mxCell>
                <mxCell id="36" value="Age" style="ellipse;whiteSpace=wrap;html=1;fontFamily=Times New Roman;fontSize=24;" parent="1" vertex="1">
                    <mxGeometry x="125" y="393" width="70" height="40" as="geometry"/>
                </mxCell>
                <mxCell id="37" value="" style="endArrow=none;html=1;rounded=0;sketch=0;strokeColor=default;fontFamily=Times New Roman;fontSize=24;exitX=0.5;exitY=0;exitDx=0;exitDy=0;entryX=0.5;entryY=1;entryDx=0;entryDy=0;" parent="1" source="36" target="12" edge="1">
                    <mxGeometry width="50" height="50" relative="1" as="geometry">
                        <mxPoint x="60.00000000000023" y="403" as="sourcePoint"/>
                        <mxPoint x="114.99999999999977" y="343" as="targetPoint"/>
                    </mxGeometry>
                </mxCell>
                <mxCell id="80" style="edgeStyle=none;rounded=0;sketch=0;html=1;exitX=1;exitY=1;exitDx=0;exitDy=0;entryX=0.25;entryY=0;entryDx=0;entryDy=0;strokeColor=default;fontFamily=Times New Roman;fontSize=24;endArrow=none;endFill=0;" parent="1" source="75" target="13" edge="1">
                    <mxGeometry relative="1" as="geometry"/>
                </mxCell>
                <mxCell id="75" value="Street" style="ellipse;whiteSpace=wrap;html=1;fontFamily=Times New Roman;fontSize=24;" parent="1" vertex="1">
                    <mxGeometry x="25" y="123" width="70" height="40" as="geometry"/>
                </mxCell>
                <mxCell id="79" style="edgeStyle=none;rounded=0;sketch=0;html=1;exitX=1;exitY=1;exitDx=0;exitDy=0;entryX=0.5;entryY=0;entryDx=0;entryDy=0;strokeColor=default;fontFamily=Times New Roman;fontSize=24;endArrow=none;endFill=0;" parent="1" source="76" target="13" edge="1">
                    <mxGeometry relative="1" as="geometry"/>
                </mxCell>
                <mxCell id="76" value="City" style="ellipse;whiteSpace=wrap;html=1;fontFamily=Times New Roman;fontSize=24;" parent="1" vertex="1">
                    <mxGeometry x="105" y="123" width="70" height="40" as="geometry"/>
                </mxCell>
            </root>
        </mxGraphModel>
    </diagram>
</mxfile>